<mxfile host="Electron" modified="2024-05-10T08:23:26.826Z" agent="Mozilla/5.0 (Windows NT 10.0; Win64; x64) AppleWebKit/537.36 (KHTML, like Gecko) draw.io/21.2.8 Chrome/112.0.5615.165 Electron/24.2.0 Safari/537.36" etag="FTMKNt78cCOsVcbtQ-1b" version="21.2.8" type="device">
  <diagram name="Page-1" id="QmIQwjLwlx2ogcl96MkP">
    <mxGraphModel dx="711" dy="463" grid="1" gridSize="10" guides="1" tooltips="1" connect="1" arrows="1" fold="1" page="1" pageScale="1" pageWidth="827" pageHeight="1169" math="0" shadow="0">
      <root>
        <mxCell id="0" />
        <mxCell id="1" parent="0" />
        <mxCell id="sNKs8gNUradTHsB70Tq1-1" value="&lt;font style=&quot;font-size: 16px;&quot;&gt;栈区&lt;br&gt;(向下增长)&lt;/font&gt;" style="rounded=0;whiteSpace=wrap;html=1;fillColor=#CCE5FF;" vertex="1" parent="1">
          <mxGeometry x="280" y="80" width="130" height="60" as="geometry" />
        </mxCell>
        <mxCell id="sNKs8gNUradTHsB70Tq1-2" value="&lt;font style=&quot;font-size: 16px;&quot;&gt;堆区&lt;br&gt;(向上增长)&lt;/font&gt;" style="rounded=0;whiteSpace=wrap;html=1;fillColor=#99CCFF;" vertex="1" parent="1">
          <mxGeometry x="280" y="140" width="130" height="60" as="geometry" />
        </mxCell>
        <mxCell id="sNKs8gNUradTHsB70Tq1-3" value="&lt;span style=&quot;font-size: 16px;&quot;&gt;全局(静态)区&lt;/span&gt;" style="rounded=0;whiteSpace=wrap;html=1;fillColor=#66B2FF;" vertex="1" parent="1">
          <mxGeometry x="280" y="200" width="130" height="60" as="geometry" />
        </mxCell>
        <mxCell id="sNKs8gNUradTHsB70Tq1-4" value="&lt;span style=&quot;font-size: 16px;&quot;&gt;常量区&lt;/span&gt;" style="rounded=0;whiteSpace=wrap;html=1;fillColor=#3399FF;" vertex="1" parent="1">
          <mxGeometry x="280" y="260" width="130" height="40" as="geometry" />
        </mxCell>
        <mxCell id="sNKs8gNUradTHsB70Tq1-5" value="&lt;span style=&quot;font-size: 16px;&quot;&gt;&lt;font color=&quot;#ffffff&quot;&gt;代码区&lt;/font&gt;&lt;/span&gt;" style="rounded=0;whiteSpace=wrap;html=1;fillColor=#007FFF;" vertex="1" parent="1">
          <mxGeometry x="280" y="300" width="130" height="40" as="geometry" />
        </mxCell>
        <mxCell id="sNKs8gNUradTHsB70Tq1-6" value="" style="shape=curlyBracket;whiteSpace=wrap;html=1;rounded=1;flipH=1;labelPosition=right;verticalLabelPosition=middle;align=left;verticalAlign=middle;" vertex="1" parent="1">
          <mxGeometry x="410" y="80" width="40" height="180" as="geometry" />
        </mxCell>
        <mxCell id="sNKs8gNUradTHsB70Tq1-7" value="&lt;font face=&quot;Verdana&quot; style=&quot;font-size: 16px;&quot;&gt;RAM&lt;/font&gt;" style="text;html=1;align=center;verticalAlign=middle;resizable=0;points=[];autosize=1;strokeColor=none;fillColor=none;" vertex="1" parent="1">
          <mxGeometry x="452" y="155" width="60" height="30" as="geometry" />
        </mxCell>
        <mxCell id="sNKs8gNUradTHsB70Tq1-9" value="" style="shape=curlyBracket;whiteSpace=wrap;html=1;rounded=1;flipH=1;labelPosition=right;verticalLabelPosition=middle;align=left;verticalAlign=middle;" vertex="1" parent="1">
          <mxGeometry x="410" y="260" width="40" height="80" as="geometry" />
        </mxCell>
        <mxCell id="sNKs8gNUradTHsB70Tq1-10" value="&lt;font face=&quot;Verdana&quot; style=&quot;font-size: 16px;&quot;&gt;ROM&lt;/font&gt;" style="text;html=1;align=center;verticalAlign=middle;resizable=0;points=[];autosize=1;strokeColor=none;fillColor=none;" vertex="1" parent="1">
          <mxGeometry x="452" y="285" width="60" height="30" as="geometry" />
        </mxCell>
        <mxCell id="sNKs8gNUradTHsB70Tq1-11" value="" style="shape=flexArrow;endArrow=classic;html=1;rounded=0;width=7;strokeWidth=1;endSize=3.44;" edge="1" parent="1">
          <mxGeometry width="50" height="50" relative="1" as="geometry">
            <mxPoint x="230" y="340" as="sourcePoint" />
            <mxPoint x="230" y="80" as="targetPoint" />
          </mxGeometry>
        </mxCell>
        <mxCell id="sNKs8gNUradTHsB70Tq1-12" value="&lt;font style=&quot;font-size: 15px;&quot;&gt;低地址&lt;/font&gt;" style="text;html=1;align=center;verticalAlign=middle;resizable=0;points=[];autosize=1;strokeColor=none;fillColor=none;" vertex="1" parent="1">
          <mxGeometry x="137" y="308" width="70" height="30" as="geometry" />
        </mxCell>
        <mxCell id="sNKs8gNUradTHsB70Tq1-13" value="&lt;font style=&quot;font-size: 15px;&quot;&gt;高地址&lt;/font&gt;" style="text;html=1;align=center;verticalAlign=middle;resizable=0;points=[];autosize=1;strokeColor=none;fillColor=none;" vertex="1" parent="1">
          <mxGeometry x="137" y="78" width="70" height="30" as="geometry" />
        </mxCell>
      </root>
    </mxGraphModel>
  </diagram>
</mxfile>
